<svg xmlns="http://www.w3.org/2000/svg" viewBox="0 0 512 512" width="512" height="512" role="img" aria-label="MD Converter">
  <title>MD Converter</title>
  <defs>
    <linearGradient id="bg" x1="0" y1="0" x2="1" y2="1">
      <stop offset="0" stop-color="#57cf9f"/>
      <stop offset="1" stop-color="#1f9a78"/>
    </linearGradient>
  </defs>
  <rect width="512" height="512" rx="82" fill="url(#bg)"/>
  <!-- Monogram geometry mirrors web/scripts/make-icons.mjs: square terminals,
       the M mitred to a point at the vee, the D an even-weight bowl. -->
  <g fill="#0f2436">
    <path d="M67 153.6h42v204.8h-42z"/>
    <path d="M201 153.6h42v204.8h-42z"/>
    <path d="M155 322.4 88 199.4l36.8-20.1 67 123z"/>
    <path d="M155 322.4 222 199.4l-36.8-20.1-67 123z"/>
    <path d="M297 153.6h42v204.8h-42z"/>
    <path d="M297 153.6h53.5a102.4 102.4 0 0 1 0 204.8H297v-42h53.5a60.4 60.4 0 0 0 0-120.8H297z"/>
  </g>
</svg>
